<?xml version="1.0" encoding="utf-8"?>
<!-- Generator: Adobe Illustrator 23.0.3, SVG Export Plug-In . SVG Version: 6.00 Build 0)  -->
<svg version="1.1" id="Layer_1" xmlns="http://www.w3.org/2000/svg" xmlns:xlink="http://www.w3.org/1999/xlink" x="0px" y="0px"
	 viewBox="0 0 459.9 143" style="enable-background:new 0 0 459.9 143;" xml:space="preserve">
<style type="text/css">
	.st0{fill:#FFFFFF;}
	.st1{font-family:'Gotham-Bold';}
	.st2{font-size:42px;}
	.st3{font-size:64.14px;}
	.st4{letter-spacing:1;}
</style>
<title>logo</title>
<path class="st0" d="M71.5,143c39.5,0,71.5-32,71.5-71.5S111,0,71.5,0S0,32,0,71.5C0,111,32,143,71.5,143z M100.5,105.2L100.5,105.2
	c-4.8,0-20-16.8-62.7-8.1c-1.1,0.4-2.3,0.6-3.4,0.8c-5.5,0-6.5-8.2-0.6-9.4c23.7-5.2,47.8-4.7,68.4,7.6
	C107,99.1,104.9,105.2,100.5,105.2L100.5,105.2z M108.3,86.3c-0.7-0.2-0.5,0.4-3.6-1.2c-18-10.7-44.9-15-68.8-8.5
	c-1.1,0.4-2.3,0.7-3.4,0.8c-6.4,0-8.1-9.6-1.1-11.6c28.1-7.9,58.2-3.3,79.2,9.2c2.1,1.1,3.4,3.3,3.3,5.7
	C113.9,83.8,111.4,86.3,108.3,86.3C108.3,86.3,108.3,86.3,108.3,86.3L108.3,86.3z M27.1,41.7c27-7.9,67.7-5.4,93.1,9.4
	c6.5,3.8,4,13.2-3,13.2l0,0c-1.3,0-2.6-0.4-3.7-1.1C93,50.9,56.3,48,32.5,54.6c-1.2,0.4-2.5,0.7-3.7,0.7c-3.7,0-6.7-2.9-6.7-6.6
	c0-0.1,0-0.1,0-0.2C21.9,45.4,24,42.5,27.1,41.7L27.1,41.7z"/>
<text transform="matrix(1 0 0 1 171.45 52.51)" class="st0 st1 st2">Spotify Song</text>
<text transform="matrix(1 0 0 1 167.65 115.66)" class="st0 st1 st3">R</text>
<text transform="matrix(1 0 0 1 214.92 115.66)" class="st0 st1 st3 st4">oulet</text>
<text transform="matrix(1 0 0 1 390.47 115.66)" class="st0 st1 st3">t</text>
<text transform="matrix(1 0 0 1 417.67 115.66)" class="st0 st1 st3 st4">e</text>
</svg>
