<svg xmlns="http://www.w3.org/2000/svg" viewBox="0 0 58.08 63"><defs><style>.cls-1{fill:#fff;}</style></defs><title>timer</title><g id="Layer_2" data-name="Layer 2"><g id="Layer_1-2" data-name="Layer 1"><path class="cls-1" d="M45.75,6l6.69,5.58a2.45,2.45,0,0,0,1.57.57,2.42,2.42,0,0,0,1.89-.89,2.46,2.46,0,0,0-.31-3.46L48.91,2.23A2.46,2.46,0,0,0,45.75,6Z"/><path class="cls-1" d="M4.07,12.16a2.47,2.47,0,0,0,1.57-.57L12.32,6A2.46,2.46,0,1,0,9.17,2.23L2.49,7.81a2.46,2.46,0,0,0-.31,3.46A2.42,2.42,0,0,0,4.07,12.16Z"/><path class="cls-1" d="M49.57,13.43A28.81,28.81,0,0,0,31.5,5V2.46a2.46,2.46,0,0,0-4.92,0V5A29,29,0,0,0,8.51,54.49a29,29,0,0,0,37.74,2.86,2.46,2.46,0,0,0-2.92-4A23.89,23.89,0,0,1,29,58.08,24.12,24.12,0,1,1,50.18,45.57a2.46,2.46,0,0,0,4.32,2.37,29,29,0,0,0-4.93-34.51Z"/><path class="cls-1" d="M41,19.15a2.45,2.45,0,0,0-3.46.36L29.81,29.1a4.94,4.94,0,1,0,3.82,3.1l7.76-9.59A2.46,2.46,0,0,0,41,19.15Z"/></g></g></svg>