<svg xmlns="http://www.w3.org/2000/svg" viewBox="0 0 459.9 143"><defs><style>.cls-1,.cls-2,.cls-3{fill:#fff;}.cls-2{font-size:42px;letter-spacing:0.02em;}.cls-2,.cls-3{font-family:Gotham-Bold, Gotham;font-weight:700;}.cls-3{font-size:64.14px;letter-spacing:0.02em;}.cls-4{letter-spacing:0.01em;}.cls-5{letter-spacing:0.02em;}.cls-6{letter-spacing:0.01em;}</style></defs><title>logo</title><g id="Layer_2" data-name="Layer 2"><g id="Layer_1-2" data-name="Layer 1"><path class="cls-1" d="M71.5,143A71.5,71.5,0,1,0,0,71.5,71.52,71.52,0,0,0,71.5,143Zm29-37.8h0c-4.81,0-20-16.85-62.68-8.11a18.68,18.68,0,0,1-3.43.75c-5.46,0-6.5-8.15-.64-9.4C57.4,83.24,81.53,83.7,102.11,96c4.91,3.13,2.82,9.19-1.58,9.19Zm7.76-18.91c-.67-.17-.47.42-3.55-1.21-18-10.66-44.89-15-68.79-8.47a12.12,12.12,0,0,1-3.44.75c-6.38,0-8.07-9.6-1.12-11.56,28.1-7.9,58.25-3.29,79.23,9.19a6,6,0,0,1,3.26,5.68A5.59,5.59,0,0,1,108.29,86.29ZM27.1,41.7c26.95-7.89,67.73-5.4,93.09,9.4,6.5,3.75,4,13.23-3,13.23h0a6.67,6.67,0,0,1-3.73-1.13C93,50.94,56.27,48,32.52,54.64a14.09,14.09,0,0,1-3.72.74,6.65,6.65,0,0,1-6.72-6.8,6.81,6.81,0,0,1,5-6.88Z"/><text class="cls-2" transform="translate(171.45 52.51)">Spotify Song</text><text class="cls-3" transform="translate(146.87 115.66)"> <tspan class="cls-4" x="20.78" y="0">R</tspan><tspan class="cls-5" x="68.05" y="0">oulet</tspan><tspan class="cls-6" x="243.6" y="0">t</tspan><tspan class="cls-5" x="270.8" y="0">e</tspan></text></g></g></svg>